Patient4_TMGait_0pt2_01_right_16_EMG.mot
version=1
nRows=13
nColumns=33
inDegrees=no
endheader
time	1LAddLong	2LGlutMax	3LGlutMed	4LIliopsoas	5LSemiMemb	6LBicFemLong	7LRecFem	8LVastMed	9LVastLat	10LGasMed	11LTibAnt	12lTibPost	13LPeroneusLong	14LSol	15LExtDigLong	16LFlexDigLong	17RAddLong	18RGlutMax	19RGlutMed	20RIliopsoas	21RSemiMemb	22RBicFemLong	23RRecFem	24RVastMed	25RVastLat	26RGasMed	27RTibAnt	28RTibPost	29RPeroneusLong	30RSol	31RExtDigLong	32RFlexDigLong
37.11	-0.004272	0.011597	0.009155	0.007477	0.037689	-0.00946	-0.032349	0.010681	-0.22247	-0.005493	-0.007324	-0.016937	-0.001373	0.032806	-0.050659	-0.017395	0.080109	-0.047302	0.18646	0.054779	-0.042877	0.13886	0.23163	-0.27359	-0.0914	0.001221	0.034943	-0.024109	-0.31143	-0.042419	-0.001068	-0.013275
37.111	-0.005188	0.006866	-0.015106	0.01297	0.08728	0.02655	-0.00351	-0.005951	-0.12985	0.005493	-0.006409	0.009308	-0.009003	0.005341	-0.056	-0.00824	0.079193	-0.060577	0.15686	-0.037537	-0.04715	0.025024	0.035553	-0.15961	-0.14664	0.011902	0.042725	-0.021667	-0.11856	-0.038147	0.000305	-0.020447
37.112	-0.020752	0.021667	-0.037842	0.000153	0.087433	0.032196	-0.008087	0.009918	-0.049133	0.004425	-0.037537	-0.00412	-0.002289	0.00473	-0.019836	-0.004578	0.053101	-0.045166	-0.081635	-0.10437	-0.17151	0.017548	-0.092468	-0.11185	-0.11353	0.016022	0.029602	-0.020294	0.026703	-0.02655	0.002899	-0.016785
37.113	-0.020752	0.016785	-0.064545	-0.000305	0.046234	0.02533	0.009766	0.015564	0.013428	0.000305	-0.019073	-0.001831	0.020752	-0.001678	-0.051575	0.002594	-0.003052	0.008392	-0.31097	-0.072937	-0.16846	-0.005341	-0.17364	-0.039673	0.010529	0.020905	0.028839	-0.023956	0.15854	-0.054016	-0.00061	-0.01236
37.114	-0.022125	0.004883	-0.00946	0.003662	-0.024261	-0.004272	-0.007019	0.009613	0.012054	-0.003052	0.017242	0.001678	0.020752	0.029602	0.001526	-0.002136	-0.03067	-0.035553	-0.12589	-0.041504	0.098419	-0.061798	-0.2002	0.16632	0.13901	0.001984	0.042725	-0.020752	0.22812	-0.068054	-0.003052	-0.014954
37.115	-0.017395	0.047913	0.14801	-0.015717	-0.059052	0.028229	-0.025635	0.010223	-0.002594	0.013733	0.042419	-0.004578	-0.011139	0.00885	-0.005493	-0.004578	-0.1001	0.008392	0.099335	0.072174	0.23895	-0.085602	-0.15961	0.30533	0.16983	-0.014191	0.037079	-0.023956	0.26581	-0.10849	-0.002899	-0.016632
37.116	-0.016022	0.015869	0.023956	-0.009613	-0.11429	0.013428	-0.048981	0.002136	0.010529	0.009918	0.036926	-0.002747	-0.013885	-0.052185	0.018463	-0.006409	-0.11017	-0.031891	0.081329	0.068817	0.082397	-0.094452	-0.21576	0.32059	0.11337	0.00412	0.056458	-0.028076	0.11093	-0.16678	0.000153	-0.010376
37.117	0.005341	0.000458	-0.025787	-0.003052	-0.11276	-0.020447	-0.032959	0.000153	0.045471	0.010071	0.012512	0.00351	-0.016479	-0.011902	0.01709	-0.003967	-0.10056	0.017242	0.2272	0.034637	0.073395	-0.070038	-0.28107	0.57327	0.23972	0.009003	0.044556	-0.021515	-0.067291	-0.19928	0.000916	-0.011292
37.118	0.017548	0.051422	-0.094452	-0.001068	-0.020447	-0.077057	-0.036926	-0.000763	0.034332	0.005188	0.080414	-0.003967	-0.010986	0.017853	-0.014343	-0.000153	-0.074158	0.001678	0.012665	-0.017242	0.28809	-0.069275	-0.16144	0.45136	0.55603	-0.006714	-0.011444	-0.025482	-0.25848	-0.25711	0.00061	-0.003967
37.119	0.023956	0.029907	-0.059509	0.007935	0.10819	-0.071869	-0.031738	-0.004272	-0.010681	0.01297	0.05722	-0.000305	-0.037689	0.047913	-0.050659	0.001984	-0.033569	-0.044708	-0.19775	-0.005493	0.25162	-0.096436	0.10468	0.23514	0.18631	0.020905	0.012207	-0.00885	-0.18784	-0.46967	0.000458	-0.007935
37.12	0.010834	-0.003204	-0.042877	-0.009155	0.13886	-0.070038	0.025024	0.004883	-0.024414	0.003204	-0.034027	0.002289	-0.074005	0.021973	0.08728	-0.014343	-0.015411	-0.028229	-0.25406	-0.050354	0.12878	-0.05722	-0.061798	0.10696	0.16159	0.023499	-0.004883	-0.30853	0.14664	-0.28763	0.001373	0.001526
37.121	0.007629	0.003204	-0.010834	0.007019	0.090027	-0.054474	0.01709	-0.006256	-0.080414	-0.02243	-0.15793	-0.001526	-0.036163	0.033264	0.080261	-0.005493	0.020752	-0.041962	0.076141	-0.098114	0.069885	0.002289	-0.096588	0.093079	0.2652	0.031891	-0.048523	0.034332	-0.094604	-0.00946	0.001984	-0.007782
37.122	0.019836	0.068359	0.071869	-0.010223	-0.004578	-0.067902	-0.010223	-0.010986	-0.10162	-0.046082	0.027313	-0.003967	0.036774	0.033112	0.12909	-0.000763	0.02655	-0.006409	0.43213	-0.083313	-0.062256	0.13977	-0.064392	0.03006	0.3595	-0.016632	0.000458	-0.12985	-0.03006	-0.57068	0.000153	-0.022583
